<?xml version="1.0" encoding="utf-8"?>
<!-- Generator: Adobe Illustrator 16.0.4, SVG Export Plug-In . SVG Version: 6.00 Build 0)  -->
<!DOCTYPE svg PUBLIC "-//W3C//DTD SVG 1.1//EN" "http://www.w3.org/Graphics/SVG/1.1/DTD/svg11.dtd">
<svg version="1.1" id="レイヤー_1" xmlns="http://www.w3.org/2000/svg" xmlns:xlink="http://www.w3.org/1999/xlink" x="0px"
	 y="0px" width="512px" height="512px" viewBox="0 0 512 512" enable-background="new 0 0 512 512" xml:space="preserve">
<path d="M304.5,480.5h116.236c15.523,0,27.764-12.539,27.764-27.167V272.5h-144V480.5z M224.5,480.5h64.355v-208H224.5V480.5z
	 M64.5,453.333c0,14.628,12.802,27.167,28.028,27.167H208.5v-208h-144L64.5,453.333z M272.5,144.5c0,0,32-64,80-64c16,0,32,0,32,16
	C384.5,128.5,272.5,144.5,272.5,144.5z M128.5,96.5c0-16,16-16,32-16c48,0,80,64,80,64S128.5,128.5,128.5,96.5z M453.156,160.976
	H324.381c24.48-5.971,75.676-16.032,92.119-32.476c16-16,0-96-64-96c-62.765,0-96,80-96,80s-32.009-80-95.299-80
	c-63.59,0-80.701,80-64.701,96c16.444,16.444,61.715,26.504,84.106,32.476H60.74c-8.657,0-12.24,6.866-12.24,15.524v64.477
	c0,8.66,3.583,15.523,12.24,15.523H192.5v-96l16,6.412V256.5h13.604h66.752H304.5v-89.588l16-6.412v96h132.656
	c8.359,0,11.344-6.863,11.344-15.523V176.5C464.5,167.842,461.516,160.976,453.156,160.976z"/>
</svg>
