<?xml version="1.0" encoding="utf-8"?>
<!-- Generator: Adobe Illustrator 16.0.4, SVG Export Plug-In . SVG Version: 6.00 Build 0)  -->
<!DOCTYPE svg PUBLIC "-//W3C//DTD SVG 1.1//EN" "http://www.w3.org/Graphics/SVG/1.1/DTD/svg11.dtd">
<svg version="1.1" id="レイヤー_1" xmlns="http://www.w3.org/2000/svg" xmlns:xlink="http://www.w3.org/1999/xlink" x="0px"
	 y="0px" width="512px" height="512px" viewBox="0 0 512 512" enable-background="new 0 0 512 512" xml:space="preserve">
<g>
	<path fill-rule="evenodd" clip-rule="evenodd" d="M151,369.918c-11.674-20.339-17.485-43.303-20.706-66.359
		c-6.606-47.318-11.462-100.006,12.962-143.351c24.882-44.155,65.785-40.811,111.183-46.247
		c16.15-1.937,37.555-24.062,55.087-13.861c9.263,5.39,16.747-1.583,26.434,2.142c9.704,3.731,20.669,4.895,16.828-8.115
		c8.131,4.083,13.671,6.616,18.685,14.564c1.94-3.16,15.666,5.684,9.388-11.232c-5.168-13.937-15.349-29.836-27.311-38.991
		c-26.021-19.912-63.426-28.812-95.398-26.772c-17.023,1.086-34.735-0.603-51.126,5.072c-17.166,5.945-31.153,18.861-47.01,27.377
		c-29.814,16.017-51.244,86.271-55.938,104.488c-1.104,4.287,9.221,25.179,6.436,26.303c12.824,2.734,9.198-13.744,16.232-11.925
		c-2.304,17.291-11.666,31.317-18.936,47.026c-9.727-6.921,7.868-17.948-4.045-26.068c-7.758,16.09-14.489,24.948-27.767,36.173
		c-12.22,10.329-40.385,25.549-47.154,39.786c-5.129,10.787,6.215,33.441,12.906,41.39c9.269,11.007,26.75,23.315,42.958,81.132
		c5.338,19.039,29.726,24.921,48.14,28.502c16.829,3.272,30.381,18.928,46.779,15.68c13.898-2.754-12.464,33.435-26.368,40.812
		c7.204,9.139,38.507-27.619,39.797-34.283c2.975-15.379-8.387-35.597,15.156-28.423C188.814,407.183,164.271,393.038,151,369.918z
		 M307.602,75.837c-3.657,1.481-7.285,1.474-10.881-0.024c-0.982-0.998-3.838-30.811-12.146-34.365
		C302.674,37.659,306.327,75.54,307.602,75.837z"/>
	<path fill-rule="evenodd" clip-rule="evenodd" d="M220.188,429.12c-0.913-0.173-1.879-0.329-2.919-0.463
		C217.247,429.337,218.308,429.448,220.188,429.12z"/>
	<path fill-rule="evenodd" clip-rule="evenodd" d="M448.629,331.506c-30.807-52.583-15.479-123.806-36.139-167.973
		c-6.283-13.434-28.619-39.81-29.419-48.027c-4.032,22.304-34.497-21.687-33.383,4.18c-16.073-8.265-17.181-12.208-31.653-5.142
		c35.048,45.202,55.346,134.904,38.39,189.789c-11.482,37.172-22.398,67.56-55.536,90.866c-5.032,3.539-66.511,31.44-80.701,33.921
		c22.618,4.29,7.737,20.476,18.284,35.639c-1.924,2.544-3.847,5.087-5.771,7.631c42.241,27.067,84.078-25.037,121.075-39.312
		c13.628-5.259,8.875,25.217,17.156,25.909c17.518-25.37,101.574-44.371,98.884-48.291c-7.067-10.302,8.639-38.736,14.428-47.149
		C487.105,359.389,459.331,349.771,448.629,331.506z"/>
	<path fill-rule="evenodd" clip-rule="evenodd" d="M238.472,464.759C238.141,464.282,235.883,468.182,238.472,464.759
		L238.472,464.759z"/>
	<path fill-rule="evenodd" clip-rule="evenodd" d="M314.441,212.863c1.246-0.053,1.975-0.084,3.25-0.138
		c-1.972-1.978-3.681-3.579-5.26-5.298c-7.901-8.601-18.234-13.73-29.311-13.387c-13.557,0.42-27.702-0.895-40.166,8.667
		c-4.144,3.179-4.367,4.578-3.521,8.312c1.091,4.825,3.757,10.11,2.664,14.417c-1.509,5.953,0.426,9.39,3.116,12.541
		c3.519-2.229,6.398-5.048,9.702-5.691c1.472-0.286,3.797,3.807,5.736,5.912c-1.333,1.037-2.668,2.075-4.993,3.885
		c1.164,1.857,2.141,4.411,3.936,6.09c4.375,4.088,9.111,6.42,13.733,10.241c7.8,6.449,6.303,6.662,15.979,2.352
		c-0.257-0.303-0.509-0.599-0.68-0.799c-0.309-0.362-0.231-0.272,0,0c3.893-2.858,7.456-4.104,11.02-6.721
		c-0.198-0.668-0.396-1.337-0.593-2.004c-6.41-0.904-16.243-1.809-22.654-2.713c0.09-0.555,0.177-1.111,0.267-1.667
		c3.657-0.939,7.315-1.878,10.974-2.818c-0.069-0.486-0.14-0.972-0.207-1.457c-10.173-0.572-13.493-1.144-23.665-1.716
		c-0.223-0.653-0.447-1.306-0.67-1.959c1.452-0.636,2.904-1.272,4.927-2.157c0.953-1.632,2.497-4.271,4.64-7.936
		c0.233,7.076,6.025,12.743,13.159,12.743c7.28,0,13.183-5.901,13.183-13.182c0-0.143-0.017-0.281-0.021-0.422
		c0.178-0.35,0.355-0.701,0.54-1.056c2.367,4.192,3.978,7.045,5.575,9.874c5.06-0.216,11.213-0.479,15.711-0.671
		c1.097-5.462,1.938-9.644,3.113-15.508C321.604,218.705,318.148,215.885,314.441,212.863z M291.72,228.379
		c-1.489,0-2.698-1.209-2.698-2.7c0-1.491,1.209-2.7,2.698-2.7c1.492,0,2.7,1.209,2.7,2.7
		C294.42,227.169,293.212,228.379,291.72,228.379z"/>
	<path fill-rule="evenodd" clip-rule="evenodd" d="M181.994,351.298c5.98,1.07,12.181,0.814,18.248,1.515
		c6.052,0.695,12.387,1.035,17.972,3.171c7.208,2.757,14.224,2.786,21.062,0.591c11.706-3.756,23.223-5.489,35.18-1.433
		c1.311,0.442,3.107-0.557,4.909-0.937c-2.705-3.884-4.708-6.759-6.725-9.653c-2.234,0.414-4.666,1.542-6.812,1.136
		c-6.462-1.225-13.084-2.374-19.136-4.814c-6.557-2.645-12.781-3.786-19.715-2.129c-2.99,0.714-6.285,0.065-9.434,0.212
		c-3.849,0.178-7.973-0.262-11.474,0.986c-8.618,3.069-16.688,8.449-27.276,4.532C179.371,347.418,180.387,351.012,181.994,351.298z
		"/>
	<path fill-rule="evenodd" clip-rule="evenodd" d="M219.171,311.462c-0.781,2.026-1.857,4.922-0.989,6.332
		c0.905,1.468,4.164,2.522,6.033,2.112c2.763-0.607,5.193-2.693,7.794-4.1c3.421-1.85,6.821-3.75,10.316-5.452
		c3.796-1.849,7.691-3.494,11.542-5.229c-0.174-0.493-0.35-0.987-0.526-1.481c-1.081-0.03-2.354,0.304-3.214-0.146
		c-9.21-4.835-19.054-2.605-28.672-2.541c-0.754,0.007-2.206,2.244-2.067,3.27c0.189,1.387,1.608,2.605,2.917,4.504
		C221.183,309.658,219.604,310.339,219.171,311.462z"/>
	<path fill-rule="evenodd" clip-rule="evenodd" d="M221.982,371.782c6.556-0.922,13.116-1.977,19.711-2.405
		c4.36-0.282,6.523-2.253,7.435-6.185c-9.507-6.382-30.467-4.832-37.143,2.536C213.248,371.232,216.968,372.486,221.982,371.782z"/>
	<path fill-rule="evenodd" clip-rule="evenodd" d="M198.84,243.395c-8.321-1.034-15.553-1.933-22.843-2.839
		c-0.547,4.589-1.083,9.085-1.68,14.102C182.755,258.284,188.186,256.005,198.84,243.395z"/>
	<path fill-rule="evenodd" clip-rule="evenodd" d="M204.069,303.17c-0.349,0.09-0.397,1.349-0.585,2.067
		c1.6,0.372,3.185,0.961,4.801,1.048c1.426,0.077,2.882-0.406,5.9-0.898c-2.614-1.501-3.803-2.631-5.13-2.828
		C207.446,302.319,205.69,302.753,204.069,303.17z"/>
	<path fill-rule="evenodd" clip-rule="evenodd" d="M212.438,221.749c-0.447-3.728-0.096-7.557-0.615-11.269
		c-0.788-5.641,0.322-12.4-6.956-14.958c-2.361-0.831-4.981-0.896-7.463-1.411c-8.217-1.708-16.358-4.023-24.658-5.023
		c-6.925-0.834-13.608,0.828-18.125,8.06c7.748,6.244,3.862,11.95-1.116,17.633c-0.902,1.03-1.858,2.317-2.054,3.6
		c-0.347,2.253-0.127,4.596-0.15,7.672c5.243-3.129,9.188-5.482,13.132-7.837c0.08,0.221,0.158,0.443,0.236,0.665
		c-3.139,3.84-6.278,7.681-9.418,11.521c0.605,0.716,1.209,1.432,1.813,2.147c4.075-2.628,8.15-5.256,12.89-8.315c0,0,0,0,0,0
		c-0.289,0.99-0.451,2.035-0.451,3.118c0,6.149,4.984,11.133,11.133,11.133s11.133-4.984,11.133-11.133
		c0-0.249-0.021-0.493-0.037-0.738c0.065-0.12,0.129-0.239,0.195-0.36l6.181,11.669
		C207.217,237.913,213.526,230.838,212.438,221.749z M186.236,227.693c-1.49,0-2.699-1.209-2.699-2.7s1.209-2.699,2.699-2.699
		c1.491,0,2.7,1.208,2.7,2.699S187.728,227.693,186.236,227.693z"/>
</g>
</svg>
