<?xml version="1.0" encoding="utf-8"?>
<!-- Generator: Adobe Illustrator 16.0.4, SVG Export Plug-In . SVG Version: 6.00 Build 0)  -->
<!DOCTYPE svg PUBLIC "-//W3C//DTD SVG 1.1//EN" "http://www.w3.org/Graphics/SVG/1.1/DTD/svg11.dtd">
<svg version="1.1" id="レイヤー_1" xmlns="http://www.w3.org/2000/svg" xmlns:xlink="http://www.w3.org/1999/xlink" x="0px"
	 y="0px" width="512px" height="512px" viewBox="0 0 512 512" enable-background="new 0 0 512 512" xml:space="preserve">
<polygon fill-rule="evenodd" clip-rule="evenodd" fill="#040000" points="263.767,128.653 297.001,128.653 297.001,479.791 
	263.767,479.791 263.767,128.653 "/>
<polygon fill-rule="evenodd" clip-rule="evenodd" fill="#040000" points="305,159.667 367.667,159.667 367.667,479.791 305,479.791 
	305,159.667 "/>
<polygon fill-rule="evenodd" clip-rule="evenodd" fill="#040000" points="373.667,176.334 425.667,176.334 425.667,480.365 
	373.667,480.365 373.667,176.334 "/>
<path fill-rule="evenodd" clip-rule="evenodd" fill="#040000" d="M504.533,208.334H433v271.79h71.533V208.334L504.533,208.334z
	 M501.721,435.396h-65.127v1.963h65.127V435.396L501.721,435.396z M501.721,406.286h-65.127v1.963h65.127V406.286L501.721,406.286z
	 M501.721,295.089h-65.127v1.957h65.127V295.089L501.721,295.089z M501.721,265.997h-65.127v1.986h65.127V265.997L501.721,265.997z"
	/>
<path fill-rule="evenodd" clip-rule="evenodd" fill="#040000" d="M81.212,480.365V112H0v368.365H81.212L81.212,480.365z
	 M3.206,179.536h73.911v-2.605H3.206V179.536L3.206,179.536z M3.206,218.55h73.911v-2.642H3.206V218.55L3.206,218.55z
	 M3.206,367.583h73.911v-2.628H3.206V367.583L3.206,367.583z M3.206,406.575h73.911v-2.644H3.206V406.575L3.206,406.575z"/>
<path fill-rule="evenodd" clip-rule="evenodd" fill="#040000" d="M88.581,48.5h64.487v26.262H88.581V48.5L88.581,48.5z
	 M153.068,79.567V92.49H88.581V79.567H153.068L153.068,79.567z M153.068,97.305v338.536H88.581V97.305H153.068L153.068,97.305z
	 M153.068,440.643v12.944H88.581v-12.944H153.068L153.068,440.643z M153.068,458.393v21.973H88.581v-21.973H153.068L153.068,458.393
	z"/>
<path fill-rule="evenodd" clip-rule="evenodd" fill="#040000" d="M160.437,64.334H256v416.031h-95.563V64.334L160.437,64.334z
	 M164.215,410.616h86.992v2.99h-86.992V410.616L164.215,410.616z M164.215,388.833h86.992v2.983h-86.992V388.833L164.215,388.833z
	 M164.215,366.471h86.992v2.979h-86.992V366.471L164.215,366.471z M164.215,194.142h86.992v3.01h-86.992V194.142L164.215,194.142z
	 M164.215,172.367h86.992v2.986h-86.992V172.367L164.215,172.367z M164.215,150.001h86.992v2.995h-86.992V150.001L164.215,150.001z"
	/>
</svg>
