<?xml version="1.0" encoding="utf-8"?>
<!-- Generator: Adobe Illustrator 16.0.4, SVG Export Plug-In . SVG Version: 6.00 Build 0)  -->
<!DOCTYPE svg PUBLIC "-//W3C//DTD SVG 1.1//EN" "http://www.w3.org/Graphics/SVG/1.1/DTD/svg11.dtd">
<svg version="1.1" id="レイヤー_1" xmlns="http://www.w3.org/2000/svg" xmlns:xlink="http://www.w3.org/1999/xlink" x="0px"
	 y="0px" width="512px" height="512px" viewBox="0 0 512 512" enable-background="new 0 0 512 512" xml:space="preserve">
<path d="M445.438,217.418l-33.095,217.489c-4.729,18.912-14.185,28.369-33.096,28.369H133.391c-18.913,0-28.368-9.457-33.096-28.369
	L67.199,212.69c0-14.184,9.456-33.096,28.368-33.096h42.552c-4.728,18.912-9.456,37.823-14.184,66.191
	c-4.729,23.644,9.456,37.827,28.368,37.827s28.368-9.454,33.096-28.369c4.728-28.37,9.456-56.737,14.184-75.649h108.746
	c9.456,28.368,14.185,42.552,18.912,75.649c4.728,18.915,14.184,28.369,33.096,28.369s33.095-14.183,28.367-37.827
	c-4.728-23.639-9.455-47.279-14.184-66.191h42.552C435.983,179.595,445.438,203.234,445.438,217.418z M256.318,160.683H204.31
	c9.456-37.824,33.096-75.647,52.008-75.647c9.458,0,18.915,9.456,23.643,18.912L256.318,160.683z M256.318,47.211
	c37.826,0,66.195,33.096,89.833,108.744c9.456,33.095,18.912,61.463,23.641,89.831c0,0,4.728,18.916-9.456,18.916
	c-9.456,0-14.185-14.187-14.185-18.916c-4.728-23.639-9.456-37.823-18.911-75.647c-14.185-56.736-42.552-104.015-70.922-104.015
	c-33.096,0-61.464,47.279-75.647,104.015c-9.456,37.824-9.456,42.552-14.184,75.647c0,4.729-4.728,18.916-14.184,18.916
	c-14.184,0-9.456-18.916-9.456-18.916c4.728-28.368,9.456-47.279,18.912-85.103C185.398,80.308,223.222,47.211,256.318,47.211z
	 M464.351,85.035L313.056,18.844l-10.638,26.004c-15.07-8.569-27.186-16.548-46.1-16.548c-37.824,0-85.104,28.367-113.471,132.383
	h-47.28c-9.456,0-23.64,4.728-33.096,14.184c-9.456,9.456-14.183,23.64-14.183,37.824l33.096,226.945
	c4.728,23.641,23.64,42.553,52.008,42.553h245.857c28.367,0,47.279-18.912,52.008-42.553l33.095-222.218
	c0-14.184-4.729-33.095-14.184-42.551c-9.457-9.456-9.457-9.456-14.184-9.456L464.351,85.035z"/>
</svg>
