<?xml version="1.0" encoding="utf-8"?>
<!-- Generator: Adobe Illustrator 16.0.4, SVG Export Plug-In . SVG Version: 6.00 Build 0)  -->
<!DOCTYPE svg PUBLIC "-//W3C//DTD SVG 1.1//EN" "http://www.w3.org/Graphics/SVG/1.1/DTD/svg11.dtd">
<svg version="1.1" id="レイヤー_1" xmlns="http://www.w3.org/2000/svg" xmlns:xlink="http://www.w3.org/1999/xlink" x="0px"
	 y="0px" width="512px" height="512px" viewBox="0 0 512 512" enable-background="new 0 0 512 512" xml:space="preserve">
<path fill="#231815" d="M416,512V128H96v384H0V0h512v512"/>
<rect x="128" y="400" fill-rule="evenodd" clip-rule="evenodd" fill="#231815" width="176" height="16"/>
<rect x="128" y="160" fill-rule="evenodd" clip-rule="evenodd" fill="#231815" width="176" height="16"/>
<g>
	<path fill="#040000" d="M181.155,326.121c-4.07-7.097-6.098-15.113-7.225-23.154c-2.306-16.512-3.998-34.896,4.516-50.018
		c8.691-15.41,22.961-14.242,38.804-16.144c5.635-0.674,13.106-8.401,19.225-4.834c3.234,1.878,5.842-0.55,9.223,0.745
		c3.385,1.301,7.212,1.707,5.873-2.833c2.838,1.425,4.772,2.314,6.518,5.085c0.683-1.105,5.47,1.983,3.275-3.917
		c-1.795-4.871-5.354-10.411-9.529-13.606c-9.081-6.953-22.134-10.055-33.283-9.344c-5.943,0.376-12.121-0.208-17.843,1.773
		c-5.992,2.074-10.877,6.577-16.409,9.548c-10.396,5.589-17.876,30.107-19.516,36.458c-0.386,1.502,3.216,8.791,2.243,9.185
		c4.478,0.948,3.214-4.798,5.667-4.16c-0.807,6.032-4.067,10.928-6.604,16.411c-3.394-2.418,2.745-6.267-1.417-9.102
		c-2.707,5.615-5.053,8.707-9.69,12.623c-4.263,3.606-14.087,8.915-16.45,13.886c-1.79,3.767,2.167,11.668,4.501,14.443
		c3.239,3.843,9.333,8.134,14.989,28.308c1.866,6.645,10.375,8.695,16.803,9.941c5.873,1.148,10.601,6.611,16.319,5.471
		c4.85-0.961-4.347,11.676-9.196,14.244c2.514,3.188,13.435-9.637,13.886-11.967c1.035-5.363-2.93-12.408,5.285-9.908
		C194.351,339.125,185.785,334.193,181.155,326.121z M235.796,223.503c-1.264,0.515-2.531,0.511-3.791-0.011
		c-0.344-0.344-1.341-10.746-4.234-11.992C234.081,210.177,235.354,223.395,235.796,223.503z"/>
	<path fill="#040000" d="M205.298,346.777c-0.319-0.064-0.657-0.109-1.015-0.156C204.268,346.854,204.639,346.891,205.298,346.777z"
		/>
	<path fill="#040000" d="M285.018,312.717c-10.754-18.352-5.409-43.199-12.616-58.616c-2.186-4.685-9.986-13.89-10.265-16.752
		c-1.41,7.78-12.037-7.571-11.647,1.451c-5.607-2.884-5.998-4.261-11.051-1.784c12.233,15.773,19.313,47.066,13.398,66.223
		c-4.003,12.971-7.82,23.577-19.374,31.712c-1.756,1.23-23.214,10.967-28.165,11.828c7.893,1.496,2.698,7.145,6.379,12.439
		c-0.671,0.885-1.339,1.77-2.011,2.658c14.742,9.451,29.336-8.738,42.246-13.719c4.76-1.836,3.098,8.803,5.988,9.045
		c6.116-8.854,35.445-15.488,34.505-16.857c-2.464-3.586,3.02-13.505,5.036-16.443C298.447,322.447,288.751,319.089,285.018,312.717
		z"/>
	<path fill="#040000" d="M211.678,359.217C211.56,359.047,210.774,360.408,211.678,359.217L211.678,359.217z"/>
	<path fill="#040000" d="M238.193,271.318c0.438-0.023,0.683-0.03,1.127-0.045c-0.683-0.691-1.281-1.25-1.832-1.855
		c-2.762-2.998-6.364-4.786-10.23-4.672c-4.731,0.15-9.666-0.31-14.012,3.03c-1.45,1.108-1.526,1.591-1.231,2.897
		c0.38,1.686,1.309,3.521,0.931,5.032c-0.528,2.077,0.144,3.273,1.086,4.376c1.226-0.779,2.236-1.762,3.385-1.982
		c0.514-0.102,1.329,1.326,2.002,2.062c-0.461,0.358-0.932,0.723-1.742,1.352c0.403,0.648,0.751,1.538,1.367,2.123
		c1.533,1.432,3.186,2.239,4.795,3.583c2.724,2.238,2.197,2.322,5.579,0.812c-0.092-0.104-0.18-0.208-0.236-0.275
		c-0.107-0.131-0.086-0.094,0,0c1.357-0.998,2.603-1.439,3.849-2.349c-0.08-0.231-0.146-0.465-0.208-0.698
		c-2.242-0.318-5.678-0.628-7.908-0.947c0.032-0.191,0.062-0.387,0.092-0.577c1.278-0.335,2.552-0.659,3.835-0.983
		c-0.036-0.17-0.053-0.344-0.079-0.514c-3.548-0.199-4.708-0.396-8.254-0.594c-0.086-0.232-0.158-0.462-0.24-0.688
		c0.505-0.223,1.013-0.445,1.721-0.753c0.335-0.569,0.872-1.487,1.619-2.771c0.083,2.471,2.103,4.448,4.598,4.448
		c2.531,0,4.598-2.057,4.598-4.599c0-0.047-0.011-0.099-0.011-0.146c0.062-0.123,0.125-0.247,0.185-0.369
		c0.831,1.464,1.391,2.465,1.954,3.444c1.763-0.083,3.913-0.167,5.478-0.233c0.382-1.906,0.674-3.361,1.082-5.408
		C240.688,273.357,239.484,272.367,238.193,271.318z M230.264,276.731c-0.521,0-0.948-0.425-0.948-0.941
		c0-0.521,0.427-0.94,0.948-0.94c0.516,0,0.941,0.42,0.941,0.94C231.205,276.307,230.78,276.731,230.264,276.731z"/>
	<path fill="#040000" d="M191.971,319.621c2.086,0.376,4.253,0.288,6.371,0.532c2.105,0.243,4.323,0.361,6.269,1.108
		c2.514,0.959,4.961,0.973,7.349,0.211c4.082-1.316,8.109-1.923,12.277-0.507c0.458,0.157,1.087-0.192,1.718-0.325
		c-0.95-1.356-1.653-2.356-2.346-3.373c-0.788,0.147-1.634,0.54-2.381,0.398c-2.255-0.426-4.569-0.826-6.682-1.68
		c-2.282-0.924-4.454-1.322-6.876-0.744c-1.047,0.254-2.193,0.029-3.291,0.079c-1.346,0.059-2.788-0.103-4.007,0.344
		c-3.005,1.067-5.823,2.945-9.515,1.58C191.057,318.278,191.408,319.524,191.971,319.621z"/>
	<path fill="#040000" d="M204.951,305.721c-0.282,0.71-0.657,1.717-0.348,2.213c0.315,0.508,1.446,0.88,2.104,0.736
		c0.963-0.217,1.809-0.934,2.722-1.434c1.186-0.643,2.377-1.306,3.597-1.898c1.325-0.646,2.685-1.221,4.025-1.828
		c-0.058-0.166-0.123-0.344-0.181-0.514c-0.38-0.012-0.824,0.102-1.121-0.054c-3.22-1.687-6.65-0.903-10.007-0.882
		c-0.266,0-0.771,0.779-0.721,1.137c0.062,0.484,0.556,0.913,1.015,1.572C205.65,305.098,205.094,305.334,204.951,305.721z"/>
	<path fill="#040000" d="M205.925,326.771c2.291-0.318,4.579-0.691,6.873-0.842c1.524-0.094,2.285-0.779,2.594-2.152
		c-3.308-2.232-10.626-1.688-12.955,0.885C202.877,326.581,204.178,327.021,205.925,326.771z"/>
	<path fill="#040000" d="M197.853,281.977c-2.905-0.37-5.429-0.68-7.975-0.999c-0.191,1.604-0.378,3.177-0.584,4.925
		C192.237,287.168,194.132,286.374,197.853,281.977z"/>
	<path fill="#040000" d="M199.673,302.825c-0.117,0.036-0.133,0.474-0.2,0.728c0.551,0.129,1.105,0.338,1.669,0.367
		c0.502,0.021,1.006-0.143,2.061-0.314c-0.91-0.525-1.329-0.92-1.786-0.988C200.855,302.53,200.239,302.686,199.673,302.825z"/>
	<path fill="#040000" d="M202.591,274.42c-0.15-1.305-0.036-2.638-0.21-3.932c-0.274-1.975,0.109-4.326-2.43-5.223
		c-0.822-0.291-1.734-0.312-2.604-0.49c-2.866-0.601-5.705-1.403-8.607-1.756c-2.415-0.285-4.739,0.297-6.321,2.812
		c2.706,2.18,1.352,4.173-0.382,6.158c-0.323,0.355-0.655,0.803-0.724,1.252c-0.123,0.787-0.043,1.607-0.052,2.674
		c1.827-1.09,3.202-1.906,4.583-2.73c0.028,0.075,0.056,0.152,0.084,0.229c-1.097,1.347-2.196,2.679-3.288,4.021
		c0.212,0.254,0.42,0.502,0.629,0.752c1.425-0.916,2.848-1.834,4.497-2.902l0,0c-0.097,0.35-0.151,0.708-0.151,1.09
		c0,2.145,1.741,3.881,3.881,3.881c2.147,0,3.885-1.736,3.885-3.881c0-0.09-0.004-0.174-0.008-0.258
		c0.019-0.044,0.043-0.088,0.066-0.13l2.162,4.073C200.776,280.055,202.979,277.595,202.591,274.42z M193.452,276.496
		c-0.518,0-0.942-0.423-0.942-0.949c0-0.518,0.424-0.938,0.942-0.938c0.526,0,0.942,0.42,0.942,0.938
		C194.394,276.073,193.978,276.496,193.452,276.496z"/>
</g>
<g>
	<path fill="#040000" d="M387.688,164.319l-6.06,8.768l-6.447,7.221l-6.254,4.578l-5.028-2.192l-0.645,5.351l-2.579,9.155
		L356.099,205l-5.352,5.802l-9.219-2.127l9.154-7.93l3.675-6.834l2.708-8.768l-0.193-12.443l7.156,2.644l-0.193,4.19l3.804-1.999
		l5.802-5.029l3.159-4.255l-12.313,0.387l-11.798,0.58l-13.668,0.967l-4.062-7.479l15.537,0.064l29.85-1.547l2.257-1.225
		L387.688,164.319z"/>
	<path fill="#040000" d="M385.884,241.232l-5.287,8.317l-8.445,9.348l-10.122,7.736l-13.28,6.383l-8.64-5.222l14.828-5.609
		l11.089-7.285l9.542-10.444l6.576-11.218L385.884,241.232z M359.645,238.396l-7.221,4.835l-6.254-5.028l-5.803-4.9l2.966-8.124
		l7.156,6.898L359.645,238.396z"/>
	<path fill="#040000" d="M380.017,298.87l-7.994,9.606l-7.027,7.479l-0.193,11.089l0.129,13.539l-7.801,1.869l1.031-13.667
		l-0.064-7.866l-8.703,5.48l-9.606,4.771l-6.834-4.899l10.896-4.19l8.769-4.965l9.348-7.221l7.221-7.93l-11.862,0.902l-13.023,1.354
		l-3.095-6.898l16.569-0.58l0.129-12.83l6.834,1.806l0.193,10.38l7.865-0.838l1.548-1.547L380.017,298.87z M389.881,324.916
		l-7.479,4.127l-6.641-4.9l-7.221-6.189l6.383-3.481l5.351,4.707L389.881,324.916z"/>
	<path fill="#040000" d="M386.335,385.067l-3.224,7.865l-7.736,8.897l-9.671-1.482l9.671-8.511l3.61-6.705l0.451-6.382l-0.902-5.223
		l-3.675-5.286l-3.868-1.935l-4.32-0.709l-1.289-0.064l-1.354,9.219l-5.287,13.99l-5.866,6.641l-6.061,1.999l-6.447-3.546
		l-3.804-7.607l-0.838-5.738l3.546-8.574l6.061-6.383l8.639-4.642l4.771-1.032l-1.934-5.544l8.059,2.32l0.451,2.45l6.641,0.645
		l7.156,3.353l4.255,5.158l2.837,6.834L386.335,385.067z M358.806,366.178l-2.062,0.387l-6.189,2.708l-5.157,4.835l-2.708,5.932
		l0.451,5.157l2.579,4.126l2.578,0.774l4.062-4.126l4.062-9.026l2.062-7.607L358.806,366.178z"/>
	<path fill="#040000" d="M382.66,469.782l-7.35-1.354l-0.645-2.901l-15.474-0.839l-12.185,0.581l-0.451,3.159l-7.156,1.482
		l1.225-17.858l0.258-17.472l0.064-17.536l18.116-0.773l22.694,0.838l0.258,34.557L382.66,469.782z M375.053,458.307l-0.064-15.086
		l-27.143,0.258l-0.645,14.828l12.443,0.258L375.053,458.307z M374.859,436.773l-0.258-13.41l-15.925-0.451l-10.509,0.709
		l-0.58,13.41l11.669,0.516L374.859,436.773z"/>
</g>
</svg>
