<?xml version="1.0" encoding="utf-8"?>
<!-- Generator: Adobe Illustrator 16.0.4, SVG Export Plug-In . SVG Version: 6.00 Build 0)  -->
<!DOCTYPE svg PUBLIC "-//W3C//DTD SVG 1.1//EN" "http://www.w3.org/Graphics/SVG/1.1/DTD/svg11.dtd">
<svg version="1.1" id="レイヤー_1" xmlns="http://www.w3.org/2000/svg" xmlns:xlink="http://www.w3.org/1999/xlink" x="0px"
	 y="0px" width="512px" height="512px" viewBox="0 0 512 512" enable-background="new 0 0 512 512" xml:space="preserve">
<path fill-rule="evenodd" clip-rule="evenodd" fill="#040000" d="M392.842,43.236C355.026,20.867,306.245,33.4,283.87,71.222
	L151.202,295.611c-20.615,34.856-11.573,79.015,19.58,103.23l-61.511,104.025l17.5,10.349l61.509-104.03
	c36.229,15.619,79.279,2.266,99.888-32.59l132.671-224.382C443.193,114.391,430.672,65.598,392.842,43.236z M351.664,125.414
	c-13.538,1.982-21.473,3.571-27.131,13.14c-5.658,9.57-3.227,17.288,1.561,30.105c4.851,12.992,10.889,29.161,0.016,47.55
	s-27.949,20.891-41.672,22.9c-13.537,1.983-21.472,3.571-27.13,13.141c-5.659,9.571-3.227,17.29,1.559,30.109
	c4.851,12.992,10.888,29.162,0.014,47.552c-10.874,18.391-27.951,20.894-41.673,22.904c-13.539,1.984-21.474,3.573-27.133,13.145
	l-17.485-10.338c10.874-18.391,27.951-20.894,41.673-22.904c13.539-1.984,21.474-3.573,27.134-13.145
	c5.659-9.571,3.227-17.29-1.559-30.109c-4.851-12.992-10.887-29.162-0.014-47.552c10.873-18.389,27.949-20.891,41.671-22.9
	c13.537-1.983,21.473-3.571,27.131-13.141c5.658-9.57,3.225-17.288-1.561-30.105c-4.852-12.992-10.889-29.161-0.016-47.55
	c10.872-18.388,27.949-20.89,41.67-22.9c13.538-1.982,21.473-3.571,27.131-13.14l17.484,10.338
	C382.462,120.901,365.385,123.403,351.664,125.414z"/>
</svg>
