<?xml version="1.0" encoding="utf-8"?>
<!-- Generator: Adobe Illustrator 16.0.4, SVG Export Plug-In . SVG Version: 6.00 Build 0)  -->
<!DOCTYPE svg PUBLIC "-//W3C//DTD SVG 1.1//EN" "http://www.w3.org/Graphics/SVG/1.1/DTD/svg11.dtd">
<svg version="1.1" id="レイヤー_1" xmlns="http://www.w3.org/2000/svg" xmlns:xlink="http://www.w3.org/1999/xlink" x="0px"
	 y="0px" width="512px" height="512px" viewBox="0 0 512 512" enable-background="new 0 0 512 512" xml:space="preserve">
<path fill="#040000" d="M392.842,43.236C355.025,20.867,306.244,33.4,283.87,71.222L151.202,295.611
	c-20.615,34.854-11.573,79.015,19.58,103.229l-61.512,104.025l17.5,10.349l61.509-104.03c36.229,15.619,79.279,2.268,99.889-32.59
	l132.671-224.382C443.193,114.391,430.672,65.598,392.842,43.236z M351.663,125.414c-13.537,1.982-21.473,3.571-27.131,13.14
	c-5.657,9.57-3.227,17.288,1.562,30.105c4.852,12.992,10.889,29.161,0.016,47.55s-27.948,20.891-41.672,22.9
	c-13.537,1.983-21.472,3.571-27.129,13.141c-5.66,9.57-3.228,17.29,1.56,30.109c4.851,12.992,10.888,29.162,0.014,47.552
	c-10.874,18.391-27.951,20.894-41.673,22.903c-13.539,1.983-21.475,3.572-27.133,13.146l-17.485-10.338
	c10.874-18.392,27.951-20.896,41.673-22.904c13.539-1.983,21.474-3.573,27.134-13.145c5.659-9.571,3.228-17.29-1.559-30.109
	c-4.852-12.991-10.887-29.162-0.014-47.552c10.872-18.389,27.948-20.891,41.671-22.9c13.535-1.983,21.473-3.571,27.131-13.141
	c5.657-9.57,3.226-17.288-1.562-30.105c-4.852-12.992-10.889-29.161-0.016-47.55c10.872-18.388,27.948-20.89,41.67-22.9
	c13.538-1.982,21.473-3.571,27.131-13.14l17.484,10.338C382.462,120.901,365.385,123.403,351.663,125.414z"/>
</svg>
