<?xml version="1.0" encoding="utf-8"?>
<!-- Generator: Adobe Illustrator 16.0.4, SVG Export Plug-In . SVG Version: 6.00 Build 0)  -->
<!DOCTYPE svg PUBLIC "-//W3C//DTD SVG 1.1//EN" "http://www.w3.org/Graphics/SVG/1.1/DTD/svg11.dtd">
<svg version="1.1" id="レイヤー_1" xmlns="http://www.w3.org/2000/svg" xmlns:xlink="http://www.w3.org/1999/xlink" x="0px"
	 y="0px" width="512px" height="512px" viewBox="0 0 512 512" enable-background="new 0 0 512 512" xml:space="preserve">
<path fill-rule="evenodd" clip-rule="evenodd" fill="#040000" d="M258.976,308.717c5.613,1.319,9.92,6.498,9.92,12.566
	c0,7.153-5.835,12.997-12.891,12.997s-12.89-5.844-12.89-12.997c0-6.068,4.293-11.247,9.916-12.566
	C241.795,196.604,146.634,108.499,31.543,108.499c-3.528,0-7.047,0.102-10.575,0.319c19.388-7.486,40.527-11.562,62.447-11.562
	c84.807,0,155.961,60.469,172.589,140.428c16.622-79.959,87.781-140.428,172.589-140.428c21.912,0,43.059,4.077,62.443,11.562
	c-3.523-0.217-7.047-0.319-10.588-0.319C365.363,108.499,270.206,196.604,258.976,308.717L258.976,308.717z M29.335,281.297
	c11.789,11.898,28.415,17.832,45.707,20.262c16.192,2.319,30.623-4.073,36.793-16.746c5.662-14.479-4.963-19.791-4.963-19.791
	s11.727-3.687,21.042,10.109c9.314,13.796,1.212,42.174-33.484,40.854c-14.316-0.549-30.73-4.732-47.472-13.882
	c-25.084-14.315-41.78-31.77-45.923-61.773c-2.205-25.874,9.796-43.394,28.083-54.301c58.924-35.135,139.654-7.703,183.377,38.984
	c11.567,12.339,21.261,27.321,26.104,44.718c7.162,25.764,3.302,45.148-6.384,57.933c-7.715,10.238-19.721,17.95-33.701,19.602
	c-44.608,5.396-49.017-34.476-31.727-36.771c4.409,18.05,29.296,19.714,38.664,18.501c14.418-1.877,27.087-12.116,29.181-30.956
	c3.196-27.101-20.593-51.108-42.292-67.069c-21.257-15.65-48.57-27.756-78.309-32.939c-24.556-4.401-51.213-5.286-74.453,4.745
	c-20.811,9.042-29.849,23.89-29.513,39.531C10.065,260.561,19.45,271.669,29.335,281.297z M482.663,281.297
	c-12.229,11.438-28.411,17.832-45.711,20.262c-16.192,2.319-30.502-4.131-36.77-16.746c-5.686-11.444,2.378-19.886,2.378-19.886
	s-11.384-3.131-18.473,10.204c-8.651,16.272-1.196,42.174,33.491,40.854c14.301-0.549,30.723-4.732,47.46-13.882
	c18.345-9.571,42.819-28.354,45.932-61.773c2.408-25.856-9.796-43.394-28.091-54.301c-58.921-35.135-139.646-7.703-183.373,38.984
	c-11.567,12.339-21.253,27.321-26.101,44.718c-7.149,25.764-3.303,45.148,6.384,57.933c7.715,10.238,19.717,17.95,33.705,19.602
	c44.607,5.396,49.001-34.476,31.729-36.771c-4.412,18.05-29.309,19.714-38.666,18.501c-14.432-1.877-27.101-12.116-29.189-30.956
	c-3.094-27.101,20.604-51.108,42.288-67.069c21.367-15.65,48.565-27.756,78.316-32.939c24.561-4.401,51.205-5.286,74.466,4.745
	c20.811,9.042,29.889,23.891,29.501,39.531C501.598,256.105,495.906,268.911,482.663,281.297z M256.005,63.117
	c-25.551,44.166-28.091,88.22,0,132.492C285.31,151.447,280.232,107.282,256.005,63.117z"/>
</svg>
