<?xml version="1.0" encoding="utf-8"?>
<!-- Generator: Adobe Illustrator 16.0.4, SVG Export Plug-In . SVG Version: 6.00 Build 0)  -->
<!DOCTYPE svg PUBLIC "-//W3C//DTD SVG 1.1//EN" "http://www.w3.org/Graphics/SVG/1.1/DTD/svg11.dtd">
<svg version="1.1" id="レイヤー_1" xmlns="http://www.w3.org/2000/svg" xmlns:xlink="http://www.w3.org/1999/xlink" x="0px"
	 y="0px" width="512px" height="512px" viewBox="0 0 512 512" enable-background="new 0 0 512 512" xml:space="preserve">
<g>
	<path fill-rule="evenodd" clip-rule="evenodd" fill="#040000" d="M388.7,460.512V292.489c0-0.247,6.885-2.506,9.304-6.572
		l2.212-5.581l-4.514-9.705H337.6c-0.983-5.526-6.456-11.023-13.105-11.023h-13.099c35.451-11.019,41.803-43.615,42.208-73.333
		c3.831-0.438,7.2-2.045,9.341-5.066c1.466-2.084,1.636-4.239,0.474-6.495c-1.183-2.263-3.374-3.23-5.906-3.23h-73.403v-27.536
		c10.999,0,10.999-27.523,0-27.523v-6.741c0-3.645-5.648-4.276-9.312-4.276h-5.746c-3.656,0-6.991,0.632-6.991,4.276v6.741h-3.23
		c-2.975,0-5.054,0-6.259,5.493H92.781c0.24-5.493,0.484-4.625,0.633-6.688c-0.684-1.06-1.382-2.347-2.06-3.418
		c-2.709-4.287-2.671-9.91-1.837-15.528c0.846-5.624,2.753-11.433,3.256-16.244c0.037-0.354,0.08-0.751,0.114-1.123
		c1.284-10.266-6.021-15.416-14.964-15.416c-8.97,0-16.287,5.134-15.034,15.404c0.068,0.375,0.108,0.717,0.13,1.08
		c0.517,4.814,2.428,10.55,3.264,16.195c0.839,5.611,0.872,11.109-1.822,15.391c-0.688,1.081-1.395,2.599-2.076,3.659
		c0.15,2.062,0.387,1.194,0.635,6.688h-3.597c-2.209,0-6.602,0.858-6.602,3.049v1.926c0,2.154,3.017,3.929,5.161,3.991
		l193.806,6.294c1.191,3.629,3.981,6.769,7.041,6.769h3.23v27.536h-75.692c-2.543,0-4.752,1.16-5.9,3.433
		c-1.184,2.254-1.01,4.713,0.459,6.793c2.13,3.018,5.492,4.165,9.357,4.61c0.389,29.729,6.74,62.27,42.203,73.289h-13.125
		c-6.615,0-12.121,5.497-13.09,11.023h-58.109l-4.009,9.705l2.88,5.091c2.398,4.06,4.904,6.815,10.405,7.062v168.022
		c-5.501,0.245-8.007,2.504-10.405,6.601l-2.813,4.28l3.942,8.475h247.54l4.008-8.475l-1.706-4.418
		C395.585,462.873,388.7,460.774,388.7,460.512z M355.689,443.688c0,3.678-5.3,8.653-8.971,8.653h-149.57
		c-3.68,0-6.652-4.976-6.652-8.653v-52.807c0-3.661,2.973-4.612,6.652-4.612h149.57c3.671,0,8.971,0.951,8.971,4.612V443.688z"/>
	<path fill-rule="evenodd" clip-rule="evenodd" fill="#040000" d="M205.178,394.523v49.555h137.64v-49.555H205.178z
		 M275.603,431.759c-6.473,0-11.708-5.254-11.708-11.717c0-6.48,5.235-11.705,11.708-11.705c6.462,0,11.727,5.225,11.727,11.705
		C287.329,426.505,282.064,431.759,275.603,431.759z"/>
</g>
</svg>
