<?xml version="1.0" encoding="utf-8"?>
<!-- Generator: Adobe Illustrator 16.0.4, SVG Export Plug-In . SVG Version: 6.00 Build 0)  -->
<!DOCTYPE svg PUBLIC "-//W3C//DTD SVG 1.1//EN" "http://www.w3.org/Graphics/SVG/1.1/DTD/svg11.dtd">
<svg version="1.1" id="レイヤー_1" xmlns="http://www.w3.org/2000/svg" xmlns:xlink="http://www.w3.org/1999/xlink" x="0px"
	 y="0px" width="512px" height="512px" viewBox="0 0 512 512" enable-background="new 0 0 512 512" xml:space="preserve">
<polygon fill-rule="evenodd" clip-rule="evenodd" fill="#040000" points="224.333,205.782 273.051,205.782 273.051,480.43 
	224.333,480.43 224.333,205.782 "/>
<polygon fill-rule="evenodd" clip-rule="evenodd" fill="#040000" points="274.617,191.118 303.867,185.361 360.824,474.649 
	331.586,480.43 274.617,191.118 "/>
<polygon fill-rule="evenodd" clip-rule="evenodd" fill="#040000" points="324.672,262.782 376.02,231.454 508.773,449.096 
	457.424,480.43 440.68,452.949 491.973,421.641 489.365,417.313 438.023,448.61 426.691,430.034 478.029,398.751 475.377,394.409 
	424.047,425.712 418.789,417.088 470.123,385.778 467.445,381.459 416.158,412.768 362.943,325.54 414.275,294.24 411.627,289.902 
	360.322,321.214 355.113,312.685 406.41,281.378 403.777,277.036 352.471,308.341 342.992,292.822 394.312,261.514 391.674,257.176 
	340.354,288.499 324.672,262.782 "/>
<polygon fill-rule="evenodd" clip-rule="evenodd" fill="#040000" points="216.968,239.394 152.101,239.394 152.101,479.791 
	216.968,479.791 216.968,239.394 "/>
<polygon fill-rule="evenodd" clip-rule="evenodd" fill="#040000" points="144.816,182.993 87.586,182.993 87.586,479.791 
	144.816,479.791 144.816,182.993 "/>
<polygon fill-rule="evenodd" clip-rule="evenodd" fill="#040000" points="0,143.667 80.557,143.667 80.557,479.791 0,479.791 
	0,143.667 "/>
</svg>
