<?xml version="1.0" encoding="utf-8"?>
<!-- Generator: Adobe Illustrator 16.0.4, SVG Export Plug-In . SVG Version: 6.00 Build 0)  -->
<!DOCTYPE svg PUBLIC "-//W3C//DTD SVG 1.1//EN" "http://www.w3.org/Graphics/SVG/1.1/DTD/svg11.dtd">
<svg version="1.1" id="レイヤー_1" xmlns="http://www.w3.org/2000/svg" xmlns:xlink="http://www.w3.org/1999/xlink" x="0px"
	 y="0px" width="512px" height="512px" viewBox="0 0 512 512" enable-background="new 0 0 512 512" xml:space="preserve">
<path fill-rule="evenodd" clip-rule="evenodd" fill="#040000" d="M458.248,234.494c-0.707-19.86-6.631-34.903-15.53-45.583
	c-8.12-9.735-18.623-15.778-29.931-18.567c-11.146-2.711-23.025-2.24-34.111,1.096c-14.278,4.301-27.333,13.29-35.944,26.25
	c-0.655,0.975-1.177-2.439-1.798-1.43c-1.291-23.08-2-43.259-2.152-75.259c0,0-40.781-22.785-72.781-24.611l0,0
	c-24,1.839-86.397,25.678-86.024,26.949c0.32,1.264-0.266,85.022-4.648,124.853c-1.444,12.984-3.24,28.203-5.192,41.204
	c-71.871-19.702-12.288-135.247-103.306-143.453c0.405,3.881-3.897,12.318-13.536,18.206c100.578-4.868-17.237,194.47,98.52,228.318
	c-1.013,13.825,0.868,26.926,6.386,40.098c1.322,3.16,2.641,12.726,4.068,15.828c7.287,8.413-0.283,31.609-8.032,31.609
	c35.33,0,70.676,0,105.998,0c35.326,0,70.698,0,106.031,0c-7.775,0-15.345-23.129-8.07-31.518c1.381-3.127,2.72-9.409,4.063-12.572
	c4.551-10.846,6.586-23.157,6.635-34.314c4.586-0.302,9.088-1.883,13.117-3.249l9.444-3.576l-4.53-9.041
	c-7.154-13.958,7.099-30.835,24.269-50.965C433.427,308.656,459.782,277.593,458.248,234.494z M368.252,383.026
	c-0.229,0.02-0.477,0-0.695,0.02c-0.433-2.612-0.929-5.249-1.534-7.974c-9.421-41.964-16.471-82.048-20.91-122.396
	c-1.104-10.045-2.036-20.115-2.82-30.233l5.598,2.142c1.282-3.335,2.631-6.411,4.088-9.271c1.557-3.003,3.168-5.765,4.856-8.325
	c6.26-9.441,15.924-16.055,26.565-19.236c8.278-2.49,17.076-2.879,25.232-0.884c7.946,1.943,15.354,6.199,21.044,13.034
	c6.669,7.992,11.102,19.624,11.658,35.345c1.307,36.409-22.736,64.653-42.986,88.443
	C380.232,344.957,364.722,363.17,368.252,383.026z"/>
</svg>
