<?xml version="1.0" encoding="utf-8"?>
<!-- Generator: Adobe Illustrator 16.0.4, SVG Export Plug-In . SVG Version: 6.00 Build 0)  -->
<!DOCTYPE svg PUBLIC "-//W3C//DTD SVG 1.1//EN" "http://www.w3.org/Graphics/SVG/1.1/DTD/svg11.dtd">
<svg version="1.1" id="レイヤー_1" xmlns="http://www.w3.org/2000/svg" xmlns:xlink="http://www.w3.org/1999/xlink" x="0px"
	 y="0px" width="512px" height="512px" viewBox="0 0 512 512" enable-background="new 0 0 512 512" xml:space="preserve">
<path d="M66.656,325.734c0,0-9.451,0-9.451-9.453c0,0,0-9.448,9.451-9.448c56.706-9.453,66.157-37.807,132.313-28.354
	c0,0,9.451,0,9.451,9.452c0,0,0,9.449-9.451,9.449C142.264,287.931,132.813,316.281,66.656,325.734z M66.656,269.026
	c0,0-9.451,0-9.451-9.452c0,0,0-9.451,9.451-9.451c56.706-9.452,66.157-37.805,132.313-28.354c0,0,9.451,0,9.451,9.451
	c0,0,0,9.451-9.451,9.451C142.264,231.22,132.813,259.574,66.656,269.026z M66.656,212.318L66.656,212.318 M66.656,212.318
	c0,0-9.451,0-9.451-9.451c0,0,0-9.452,9.451-9.452c56.706-9.451,66.157-37.804,132.313-28.353c0,0,9.451,0,9.451,9.45
	c0,0,0,9.451-9.451,9.451C142.264,174.514,132.813,202.868,66.656,212.318z M444.694,325.734
	c-66.156-9.453-75.608-37.804-132.313-28.354c-9.451,0-9.451-9.449-9.451-9.449c0-9.452,9.451-9.452,9.451-9.452
	c66.157-9.452,75.608,18.901,132.313,28.354c9.452,0,9.452,9.448,9.452,9.448C454.146,325.734,444.694,325.734,444.694,325.734z
	 M444.694,269.026c-66.156-9.452-75.608-37.807-132.313-28.355c-9.451,0-9.451-9.451-9.451-9.451c0-9.451,9.451-9.451,9.451-9.451
	c66.157-9.45,75.608,18.902,132.313,28.354c9.452,0,9.452,9.451,9.452,9.451C454.146,269.026,444.694,269.026,444.694,269.026z
	 M444.694,212.318c-66.156-9.451-75.608-37.805-132.313-28.354c-9.451,0-9.451-9.451-9.451-9.451c0-9.45,9.451-9.45,9.451-9.45
	c66.157-9.451,75.608,18.901,132.313,28.353c9.452,0,9.452,9.452,9.452,9.452C454.146,212.318,444.694,212.318,444.694,212.318z
	 M496.5,128.294c-75.607,0-128-79.794-231.373-18.902v301.399C359.637,372.987,420.893,432.5,496.5,432.5V128.294z M16.5,432.5
	c75.607,0,135.215-59.513,229.724-21.709V109.392C144.5,48.5,92.107,128.294,16.5,128.294V432.5z M512,448.5H304.5
	c-9.451,9.452-29.098,18.996-48,18.996s-38.549-9.544-48-18.996H0.5v-336h18.901c28.353,0,64.746-22.549,93.099-32
	c47.255-18.902,77.019-27.814,143.176,9.991c66.157-37.805,97.57-28.893,144.824-9.991c28.354,9.451,63.097,32,91.449,32H512V448.5z
	"/>
</svg>
