<?xml version="1.0" encoding="utf-8"?>
<!-- Generator: Adobe Illustrator 16.0.4, SVG Export Plug-In . SVG Version: 6.00 Build 0)  -->
<!DOCTYPE svg PUBLIC "-//W3C//DTD SVG 1.1//EN" "http://www.w3.org/Graphics/SVG/1.1/DTD/svg11.dtd">
<svg version="1.1" id="レイヤー_1" xmlns="http://www.w3.org/2000/svg" xmlns:xlink="http://www.w3.org/1999/xlink" x="0px"
	 y="0px" width="512px" height="512px" viewBox="0 0 512 512" enable-background="new 0 0 512 512" xml:space="preserve">
<g>
	<path fill-rule="evenodd" clip-rule="evenodd" d="M344.996,499.728c-6.084-6.316-4.783-13.211,2.128-19.097
		c-3.956-5.516-0.779-25.755,5.274-29.292c2.272-1.327,7.281-1.283,8.863,0.304c2.428,2.454,3.753,6.684,4.149,10.309
		c1.106,10.076,1.484,20.222,2.167,30.9c0.397,0.132,2.504,0.233,3.552,1.343c4.696,5.041,6.991,5.023,9.098-1.413
		c3.586-10.974,6.564-22.155,9.684-33.28c2.064-7.414,3.991-14.876,5.793-22.361c0.353-1.384-0.142-2.961-0.361-6.261
		c-6.996,3.234-13.102,6.053-19.741,9.119c-2.04-3.123-3.423-7.102-6.221-9.233c-8.176-6.233-18.354-6.309-27.112-3.349
		c-6.181,2.098-8.96,1.477-11.895-3.392c-1.66-2.758-3.272-5.551-5.695-9.657c4.118,0.586,6.568,0.925,9.688,1.375
		c0-4.582,0-9.022,0-14.027c1.806-0.242,3.644-0.48,5.512-0.731c0-1.057,0.176-1.863-0.035-2.56
		c-2.187-7.494-4.05-15.131-6.829-22.396c-1.947-5.008-5.203-9.499-8.684-15.665c0.26-1.193,0.987-4.461,1.705-7.737
		c-0.639-0.384-1.291-0.763-1.934-1.148c-2.305,2.472-4.608,4.945-6.926,7.408c-0.3-0.005-0.612-0.014-0.916-0.021
		c2.075-3.757,4.146-7.529,6.832-12.426c-0.276-0.942-1.035-3.665-1.788-6.371c0.626-0.354,1.286-0.692,1.925-1.045
		c2.596,3.368,5.199,6.731,8.031,10.393c4.468-7.924,2.176-10.791-10.911-15.136c-2.164,2.961-4.371,5.943-6.565,8.927
		c-0.964-0.256-1.92-0.521-2.877-0.785c-0.771-21.975-10.643-44.338,4.793-65.395c2.754-0.96,11.513-9.201,10.098-6.208
		c3.182,2.866,5.159,3.901,9.728,1.001c7.815-4.948,16.922-4.904,25.737-1.28c2.286,0.934,4.785,1.401,7.683,0.769
		c-6.321-6.521-14.392-8.673-23.573-8.024c0-0.927,0-1.855,0-2.781c4.621-0.198,9.242-0.637,13.873-0.529
		c3.868,0.093,7.722,0.825,11.573,1.28c7.256,0.838,16.172-0.584,21.317,3.167c5.6,4.069,12.014,2.891,16.662,6.201
		c5.754,4.086,10.345,9.813,15.098,15.146c0.472,0.524-1.612,4.728-2.383,4.696c-5.583-0.242-11.155-0.979-16.684-1.867
		c-13.271-2.152-27.094-3.699-38.751,3.392c-6.741,4.097-10.596,12.91-16.627,20.739c3.798,0.178,5.93-0.179,7.648,0.488
		c1.683,0.648,3.788,2.121,4.194,3.63c0.369,1.45-0.696,4.146-1.997,5.027c-5.616,3.817-6.802,9.013-6.793,15.405
		c0.009,3.582-1.62,7.455-3.457,10.67c-2.975,5.226-3.283,9.332,0.065,14.977c3.683,6.193,5.057,13.729,7.56,20.636
		c1.538,4.277,2.326,9.354,5.164,12.524c6.714,7.499,14.014,14.662,21.908,20.87c9.881,7.766,25.877,9.423,38.062,5.96
		c-2.806,3.921-5.999,7.617-8.286,11.824c-1.256,2.331-2.247,7.243-1.203,7.996c6.243,4.516,3.401,9.243,2.124,11.754
		c4.542,5.833,11.251,10.529,11.26,15.234c0.018,11.212-11.353,6.996-16.054,10.652c-1.973,4.212-3.744,8.547-6.102,12.542
		c-0.476,0.82-3.36,0.917-4.739,0.379c-2.529-1.009-4.785-2.735-8.441-4.951c0.828-2.062,2.339-5.992,4-9.859
		c1.596-3.705,3.348-7.349,3.837-11.612c-5.272,9.717-10.498,19.453-15.877,29.119c-1.612,2.926-3.335,5.895-5.608,8.287
		c-1.123,1.172-3.71,1.63-5.418,1.282c-0.789-0.159-1.032-3.018-1.657-5.115c-1.793,1.374-3.749,2.854-5.687,4.344
		c-0.265-0.212-0.534-0.418-0.803-0.625c1.163-1.947,2.313-3.908,3.48-5.859c-0.34-0.356-0.661-0.715-0.974-1.075
		c-3.035,2.035-6.084,4.066-9.133,6.097c-0.379-0.3-0.779-0.612-1.177-0.93c1.918-2.581,3.834-5.172,5.745-7.762
		c-0.392-0.48-0.766-0.969-1.146-1.454c-3.537,2.599-7.07,5.198-10.612,7.799c-0.563-0.556-1.114-1.103-1.688-1.648
		c4.066-4.19,8.142-8.37,12.194-12.547c-0.775-0.794-1.56-1.581-2.349-2.37C353.464,489.361,349.424,494.306,344.996,499.728z"/>
	<path fill-rule="evenodd" clip-rule="evenodd" d="M313.982,435.408c1.4-6.604,2.581-12.146,4.101-19.266
		c5.401,26.274,10.441,50.77,15.64,76.074c-16.729-11.344-28.547-26.036-35.046-44.989c-0.309-0.867,0.424-2.806,0.212-2.871
		c-5.168-1.671-6.67-5.027-3.419-9.279C298.492,431.144,308.303,431.064,313.982,435.408z"/>
	<path fill-rule="evenodd" clip-rule="evenodd" d="M410.167,375.837c3.374-2.996,19.358-4.56,21.67-1.616
		c1.415,1.811,2.38,5.059,1.798,7.176c-2.916,10.336-6.414,20.508-9.723,30.843c-5.732-2.762-10.375-5.009-16.099-7.775
		c3.446-2.044,5.508-3.273,7.591-4.502c-0.053-0.709-0.105-1.428-0.149-2.137c-7.309,0-14.612,0-21.935,0
		c-0.282-0.564-0.56-1.146-0.842-1.715c2.807-1.189,5.542-3.176,8.454-3.414c6.851-0.551,13.78,0.044,20.627-0.568
		c1.573-0.149,3.956-3.136,4.158-5.025C426.621,379.188,420.185,374.725,410.167,375.837z"/>
	<path fill-rule="evenodd" clip-rule="evenodd" d="M394.386,337.146c3.67-0.352,7.344-0.706,11.046-1.066c0,3.068,0,6.13,0,11.625
		c-5.393-3.27-8.789-5.333-12.19-7.404C393.62,339.245,393.999,338.196,394.386,337.146z"/>
	<path fill-rule="evenodd" clip-rule="evenodd" d="M421.031,339.035c4.572-1.185,8.643-2.232,15.427-3.978
		c-2.885,4.815-3.946,8.837-6.523,10.428C422.921,349.862,424.393,340.831,421.031,339.035z"/>
	<path fill-rule="evenodd" clip-rule="evenodd" d="M384.721,325.188c8.547-5.887,15.222-5.045,21.939,0
		C400.083,325.188,393.484,325.188,384.721,325.188z"/>
	<path fill-rule="evenodd" clip-rule="evenodd" d="M423.476,323.716c3.278-1.819,6.542-3.639,10.627-5.901
		c0.999,1.359,2.679,3.677,4.951,6.791c-5.507,0.626-9.397,1.072-13.313,1.522C424.996,325.321,424.242,324.52,423.476,323.716z"/>
</g>
<g>
	<path fill-rule="evenodd" clip-rule="evenodd" fill="#040000" d="M319.208,0l0.198,64H48v304H0v144h256V368V240h64h192V0H319.208z
		 M133,449h-9v15h-13v-15H85v-7.633L113.294,405H124v35h9V449z M174.301,458.215c-4.522,3.7-10.297,5.55-17.325,5.55
		c-5.437,0-9.972-1.167-13.605-3.501c-3.634-2.334-5.45-5.092-5.45-8.274c0-1.884,0.603-3.475,1.81-4.774
		c1.207-1.299,2.817-1.949,4.833-1.949c2.095,0,3.812,0.564,5.152,1.691c1.339,1.127,2.009,2.632,2.009,4.515
		c0,1.326-0.226,2.771-0.676,4.337c-0.451,1.564-0.822,2.758-1.114,3.58c0.637,0.238,1.379,0.418,2.228,0.537
		c0.848,0.119,1.644,0.179,2.387,0.179c1.512,0,2.997-0.338,4.456-1.015c1.458-0.676,2.705-1.664,3.74-2.963
		c1.193-1.486,2.095-3.243,2.705-5.271c0.61-2.029,0.915-4.33,0.915-6.902c0-3.739-1.002-6.81-3.008-9.21
		c-2.005-2.399-4.601-3.601-7.788-3.601c-2.47,0-4.542,0.498-6.215,1.492c-1.673,0.995-3.173,2.302-4.501,3.919l-3.074-1.153
		l3.859-29.4H179v11h-30.477l-1.649,13.236c1.432-0.9,3.275-1.707,5.529-2.529c2.254-0.822,4.907-1.206,7.956-1.206
		c2.36,0,4.688,0.272,6.981,0.789c2.293,0.518,4.528,1.499,6.703,2.931c1.989,1.327,3.659,3.113,5.012,5.355
		c1.353,2.24,2.029,5.021,2.029,8.335C181.084,449.746,178.822,454.516,174.301,458.215z M222,449h-33v-2.938
		c1-0.053,2.221-0.186,3.958-0.397c1.737-0.212,3.004-0.425,3.64-0.637c0.796-0.265,1.346-0.716,1.798-1.353
		c0.45-0.637,0.604-1.512,0.604-2.626V416h-10v-4h2.348c2.307,0,4.303-0.229,5.987-0.732c1.684-0.504,3.083-1.102,4.197-1.817
		c1.14-0.742,2.075-1.529,2.805-2.325c0.729-0.796,1.306-1.125,1.73-2.125h7.002c-0.08,2-0.015,3.762-0.094,6.07
		c-0.08,2.307,0.025,4.398,0.025,6.229v23.312c0,0.955,0.061,1.784,0.472,2.486c0.411,0.703,0.929,1.24,1.698,1.611
		c0.689,0.318,1.737,0.61,3.355,0.875c1.617,0.266,2.475,0.425,3.475,0.478V449z M256,224h-16v144H64V80h255.455l0.495,144H256z"/>
	<polygon fill-rule="evenodd" clip-rule="evenodd" fill="#040000" points="111,440 111,414.7 90.852,440 	"/>
</g>
</svg>
