<?xml version="1.0" encoding="utf-8"?>
<!-- Generator: Adobe Illustrator 16.0.4, SVG Export Plug-In . SVG Version: 6.00 Build 0)  -->
<!DOCTYPE svg PUBLIC "-//W3C//DTD SVG 1.1//EN" "http://www.w3.org/Graphics/SVG/1.1/DTD/svg11.dtd">
<svg version="1.1" id="レイヤー_1" xmlns="http://www.w3.org/2000/svg" xmlns:xlink="http://www.w3.org/1999/xlink" x="0px"
	 y="0px" width="512px" height="512px" viewBox="0 0 512 512" enable-background="new 0 0 512 512" xml:space="preserve">
<path fill-rule="evenodd" clip-rule="evenodd" fill="#040000" d="M480.778,480V342.223h-30.385V480H480.778L480.778,480z
	 M447.456,342.223h-19.038V480h19.038V342.223L447.456,342.223z M425.497,342.223h-18.329V480h18.329V342.223L425.497,342.223z
	 M404.23,342.223h-19.04V480h19.04V342.223L404.23,342.223z M382.266,342.223H129.103V480h253.163V342.223L382.266,342.223z
	 M126.168,342.223h-19.046V480h19.046V342.223L126.168,342.223z M104.196,342.223H85.865V480h18.331V342.223L104.196,342.223z
	 M82.932,342.223H63.879V480h19.052V342.223L82.932,342.223z M60.953,342.223H31.693V480h29.259V342.223L60.953,342.223z"/>
<polygon fill-rule="evenodd" clip-rule="evenodd" fill="#040000" points="450.449,336.911 450.449,293.165 72.919,293.165 
	72.919,336.911 450.449,336.911 "/>
<polygon fill-rule="evenodd" clip-rule="evenodd" fill="#040000" points="392.315,287.857 392.315,247.213 90.258,247.213 
	90.258,287.857 392.315,287.857 "/>
<polygon fill-rule="evenodd" clip-rule="evenodd" fill="#040000" points="458.327,241.914 458.327,185.15 46.088,185.15 
	46.088,241.914 458.327,241.914 "/>
<polygon fill-rule="evenodd" clip-rule="evenodd" fill="#040000" points="446.107,179.838 446.107,147.483 11.622,147.483 
	11.622,179.838 446.107,179.838 "/>
<polygon fill-rule="evenodd" clip-rule="evenodd" fill="#040000" points="471.054,142.17 471.054,100.422 48.304,100.422 
	48.304,142.17 471.054,142.17 "/>
<path fill-rule="evenodd" clip-rule="evenodd" fill="#040000" d="M375.618,95.124V30.652h-19.735v64.472H375.618L375.618,95.124z
	 M352.262,30.652h-9.73v64.472h9.73V30.652L352.262,30.652z M338.906,30.652H84.31v64.472h254.597V30.652L338.906,30.652z
	 M80.688,30.652h-9.729v64.472h9.729V30.652L80.688,30.652z M67.344,30.652H47.376v64.472h19.968V30.652L67.344,30.652z"/>
</svg>
